<svg width="1098" height="1177" viewBox="0 0 1098 1177" fill="none" xmlns="http://www.w3.org/2000/svg">
<path d="M727.032 844.461C730.03 844.461 732.904 845.652 735.024 847.771C737.143 849.891 738.334 852.766 738.334 855.763C738.334 858.76 737.143 861.635 735.024 863.755C732.904 865.874 730.03 867.065 727.032 867.065C724.035 867.065 721.16 865.874 719.041 863.755C716.921 861.635 715.731 858.76 715.731 855.763C715.731 852.766 716.921 849.891 719.041 847.771C721.16 845.652 724.035 844.461 727.032 844.461ZM763.763 844.461C766.76 844.461 769.635 845.652 771.755 847.771C773.874 849.891 775.065 852.766 775.065 855.763C775.065 858.76 773.874 861.635 771.755 863.755C769.635 865.874 766.76 867.065 763.763 867.065C760.766 867.065 757.891 865.874 755.771 863.755C753.652 861.635 752.461 858.76 752.461 855.763C752.461 852.766 753.652 849.891 755.771 847.771C757.891 845.652 760.766 844.461 763.763 844.461ZM763.763 807.731C766.76 807.731 769.635 808.921 771.755 811.041C773.874 813.16 775.065 816.035 775.065 819.032C775.065 822.03 773.874 824.904 771.755 827.024C769.635 829.143 766.76 830.334 763.763 830.334C760.766 830.334 757.891 829.143 755.771 827.024C753.652 824.904 752.461 822.03 752.461 819.032C752.461 816.035 753.652 813.16 755.771 811.041C757.891 808.921 760.766 807.731 763.763 807.731Z" fill="url(#paint0_linear_191_982)" fill-opacity="0.25"/>
<path d="M905.035 844.461C908.032 844.461 910.907 845.652 913.026 847.771C915.146 849.891 916.336 852.766 916.336 855.763C916.336 858.76 915.146 861.635 913.026 863.755C910.907 865.874 908.032 867.065 905.035 867.065C902.037 867.065 899.163 865.874 897.043 863.755C894.924 861.635 893.733 858.76 893.733 855.763C893.733 852.766 894.924 849.891 897.043 847.771C899.163 845.652 902.037 844.461 905.035 844.461ZM941.765 844.461C944.763 844.461 947.637 845.652 949.757 847.771C951.876 849.891 953.067 852.766 953.067 855.763C953.067 858.76 951.876 861.635 949.757 863.755C947.637 865.874 944.763 867.065 941.765 867.065C938.768 867.065 935.893 865.874 933.774 863.755C931.654 861.635 930.464 858.76 930.464 855.763C930.464 852.766 931.654 849.891 933.774 847.771C935.893 845.652 938.768 844.461 941.765 844.461ZM978.496 844.461C981.493 844.461 984.368 845.652 986.487 847.771C988.607 849.891 989.798 852.766 989.798 855.763C989.798 858.76 988.607 861.635 986.487 863.755C984.368 865.874 981.493 867.065 978.496 867.065C975.498 867.065 972.624 865.874 970.504 863.755C968.385 861.635 967.194 858.76 967.194 855.763C967.194 852.766 968.385 849.891 970.504 847.771C972.624 845.652 975.498 844.461 978.496 844.461ZM905.035 807.731C908.032 807.731 910.907 808.921 913.026 811.041C915.146 813.16 916.336 816.035 916.336 819.032C916.336 822.03 915.146 824.904 913.026 827.024C910.907 829.143 908.032 830.334 905.035 830.334C902.037 830.334 899.163 829.143 897.043 827.024C894.924 824.904 893.733 822.03 893.733 819.032C893.733 816.035 894.924 813.16 897.043 811.041C899.163 808.921 902.037 807.731 905.035 807.731ZM941.765 807.731C944.763 807.731 947.637 808.921 949.757 811.041C951.876 813.16 953.067 816.035 953.067 819.032C953.067 822.03 951.876 824.904 949.757 827.024C947.637 829.143 944.763 830.334 941.765 830.334C938.768 830.334 935.893 829.143 933.774 827.024C931.654 824.904 930.464 822.03 930.464 819.032C930.464 816.035 931.654 813.16 933.774 811.041C935.893 808.921 938.768 807.731 941.765 807.731ZM978.496 807.731C981.493 807.731 984.368 808.921 986.487 811.041C988.607 813.16 989.798 816.035 989.798 819.032C989.798 822.03 988.607 824.904 986.487 827.024C984.368 829.143 981.493 830.334 978.496 830.334C975.498 830.334 972.624 829.143 970.504 827.024C968.385 824.904 967.194 822.03 967.194 819.032C967.194 816.035 968.385 813.16 970.504 811.041C972.624 808.921 975.498 807.731 978.496 807.731ZM905.035 771C908.032 771 910.907 772.191 913.026 774.31C915.146 776.43 916.336 779.304 916.336 782.302C916.336 785.299 915.146 788.174 913.026 790.293C910.907 792.413 908.032 793.603 905.035 793.603C902.037 793.603 899.163 792.413 897.043 790.293C894.924 788.174 893.733 785.299 893.733 782.302C893.733 779.304 894.924 776.43 897.043 774.31C899.163 772.191 902.037 771 905.035 771ZM941.765 771C944.763 771 947.637 772.191 949.757 774.31C951.876 776.43 953.067 779.304 953.067 782.302C953.067 785.299 951.876 788.174 949.757 790.293C947.637 792.413 944.763 793.603 941.765 793.603C938.768 793.603 935.893 792.413 933.774 790.293C931.654 788.174 930.464 785.299 930.464 782.302C930.464 779.304 931.654 776.43 933.774 774.31C935.893 772.191 938.768 771 941.765 771Z" fill="url(#paint1_linear_191_982)" fill-opacity="0.25"/>
<path d="M727.032 1059.19C730.03 1059.19 732.904 1060.38 735.024 1062.5C737.143 1064.62 738.334 1067.5 738.334 1070.5C738.334 1073.49 737.143 1076.37 735.024 1078.49C732.904 1080.61 730.03 1081.8 727.032 1081.8C724.035 1081.8 721.16 1080.61 719.041 1078.49C716.921 1076.37 715.731 1073.49 715.731 1070.5C715.731 1067.5 716.921 1064.62 719.041 1062.5C721.16 1060.38 724.035 1059.19 727.032 1059.19ZM763.763 1059.19C766.76 1059.19 769.635 1060.38 771.755 1062.5C773.874 1064.62 775.065 1067.5 775.065 1070.5C775.065 1073.49 773.874 1076.37 771.755 1078.49C769.635 1080.61 766.76 1081.8 763.763 1081.8C760.766 1081.8 757.891 1080.61 755.771 1078.49C753.652 1076.37 752.461 1073.49 752.461 1070.5C752.461 1067.5 753.652 1064.62 755.771 1062.5C757.891 1060.38 760.766 1059.19 763.763 1059.19ZM690.302 1022.46C693.299 1022.46 696.174 1023.65 698.293 1025.77C700.413 1027.89 701.603 1030.77 701.603 1033.77C701.603 1036.76 700.413 1039.64 698.293 1041.76C696.174 1043.88 693.299 1045.07 690.302 1045.07C687.304 1045.07 684.43 1043.88 682.31 1041.76C680.191 1039.64 679 1036.76 679 1033.77C679 1030.77 680.191 1027.89 682.31 1025.77C684.43 1023.65 687.304 1022.46 690.302 1022.46ZM727.032 1022.46C730.03 1022.46 732.904 1023.65 735.024 1025.77C737.143 1027.89 738.334 1030.77 738.334 1033.77C738.334 1036.76 737.143 1039.64 735.024 1041.76C732.904 1043.88 730.03 1045.07 727.032 1045.07C724.035 1045.07 721.16 1043.88 719.041 1041.76C716.921 1039.64 715.731 1036.76 715.731 1033.77C715.731 1030.77 716.921 1027.89 719.041 1025.77C721.16 1023.65 724.035 1022.46 727.032 1022.46ZM763.763 1022.46C766.76 1022.46 769.635 1023.65 771.755 1025.77C773.874 1027.89 775.065 1030.77 775.065 1033.77C775.065 1036.76 773.874 1039.64 771.755 1041.76C769.635 1043.88 766.76 1045.07 763.763 1045.07C760.766 1045.07 757.891 1043.88 755.771 1041.76C753.652 1039.64 752.461 1036.76 752.461 1033.77C752.461 1030.77 753.652 1027.89 755.771 1025.77C757.891 1023.65 760.766 1022.46 763.763 1022.46ZM690.302 985.733C693.299 985.733 696.174 986.924 698.293 989.043C700.413 991.163 701.603 994.037 701.603 997.035C701.603 1000.03 700.413 1002.91 698.293 1005.03C696.174 1007.15 693.299 1008.34 690.302 1008.34C687.304 1008.34 684.43 1007.15 682.31 1005.03C680.191 1002.91 679 1000.03 679 997.035C679 994.037 680.191 991.163 682.31 989.043C684.43 986.924 687.304 985.733 690.302 985.733ZM727.032 985.733C730.03 985.733 732.904 986.924 735.024 989.043C737.143 991.163 738.334 994.037 738.334 997.035C738.334 1000.03 737.143 1002.91 735.024 1005.03C732.904 1007.15 730.03 1008.34 727.032 1008.34C724.035 1008.34 721.16 1007.15 719.041 1005.03C716.921 1002.91 715.731 1000.03 715.731 997.035C715.731 994.037 716.921 991.163 719.041 989.043C721.16 986.924 724.035 985.733 727.032 985.733ZM763.763 985.733C766.76 985.733 769.635 986.924 771.755 989.043C773.874 991.163 775.065 994.037 775.065 997.035C775.065 1000.03 773.874 1002.91 771.755 1005.03C769.635 1007.15 766.76 1008.34 763.763 1008.34C760.766 1008.34 757.891 1007.15 755.771 1005.03C753.652 1002.91 752.461 1000.03 752.461 997.035C752.461 994.037 753.652 991.163 755.771 989.043C757.891 986.924 760.766 985.733 763.763 985.733Z" fill="url(#paint2_linear_191_982)" fill-opacity="0.25"/>
<path d="M905.035 1059.19C908.032 1059.19 910.907 1060.38 913.026 1062.5C915.146 1064.62 916.336 1067.5 916.336 1070.5C916.336 1073.49 915.146 1076.37 913.026 1078.49C910.907 1080.61 908.032 1081.8 905.035 1081.8C902.037 1081.8 899.163 1080.61 897.043 1078.49C894.924 1076.37 893.733 1073.49 893.733 1070.5C893.733 1067.5 894.924 1064.62 897.043 1062.5C899.163 1060.38 902.037 1059.19 905.035 1059.19ZM941.765 1059.19C944.763 1059.19 947.637 1060.38 949.757 1062.5C951.876 1064.62 953.067 1067.5 953.067 1070.5C953.067 1073.49 951.876 1076.37 949.757 1078.49C947.637 1080.61 944.763 1081.8 941.765 1081.8C938.768 1081.8 935.893 1080.61 933.774 1078.49C931.654 1076.37 930.464 1073.49 930.464 1070.5C930.464 1067.5 931.654 1064.62 933.774 1062.5C935.893 1060.38 938.768 1059.19 941.765 1059.19ZM978.496 1059.19C981.493 1059.19 984.368 1060.38 986.487 1062.5C988.607 1064.62 989.798 1067.5 989.798 1070.5C989.798 1073.49 988.607 1076.37 986.487 1078.49C984.368 1080.61 981.493 1081.8 978.496 1081.8C975.498 1081.8 972.624 1080.61 970.504 1078.49C968.385 1076.37 967.194 1073.49 967.194 1070.5C967.194 1067.5 968.385 1064.62 970.504 1062.5C972.624 1060.38 975.498 1059.19 978.496 1059.19ZM905.035 1022.46C908.032 1022.46 910.907 1023.65 913.026 1025.77C915.146 1027.89 916.336 1030.77 916.336 1033.77C916.336 1036.76 915.146 1039.64 913.026 1041.76C910.907 1043.88 908.032 1045.07 905.035 1045.07C902.037 1045.07 899.163 1043.88 897.043 1041.76C894.924 1039.64 893.733 1036.76 893.733 1033.77C893.733 1030.77 894.924 1027.89 897.043 1025.77C899.163 1023.65 902.037 1022.46 905.035 1022.46ZM941.765 1022.46C944.763 1022.46 947.637 1023.65 949.757 1025.77C951.876 1027.89 953.067 1030.77 953.067 1033.77C953.067 1036.76 951.876 1039.64 949.757 1041.76C947.637 1043.88 944.763 1045.07 941.765 1045.07C938.768 1045.07 935.893 1043.88 933.774 1041.76C931.654 1039.64 930.464 1036.76 930.464 1033.77C930.464 1030.77 931.654 1027.89 933.774 1025.77C935.893 1023.65 938.768 1022.46 941.765 1022.46ZM978.496 1022.46C981.493 1022.46 984.368 1023.65 986.487 1025.77C988.607 1027.89 989.798 1030.77 989.798 1033.77C989.798 1036.76 988.607 1039.64 986.487 1041.76C984.368 1043.88 981.493 1045.07 978.496 1045.07C975.498 1045.07 972.624 1043.88 970.504 1041.76C968.385 1039.64 967.194 1036.76 967.194 1033.77C967.194 1030.77 968.385 1027.89 970.504 1025.77C972.624 1023.65 975.498 1022.46 978.496 1022.46ZM905.035 985.733C908.032 985.733 910.907 986.924 913.026 989.043C915.146 991.163 916.336 994.037 916.336 997.035C916.336 1000.03 915.146 1002.91 913.026 1005.03C910.907 1007.15 908.032 1008.34 905.035 1008.34C902.037 1008.34 899.163 1007.15 897.043 1005.03C894.924 1002.91 893.733 1000.03 893.733 997.035C893.733 994.037 894.924 991.163 897.043 989.043C899.163 986.924 902.037 985.733 905.035 985.733ZM941.765 985.733C944.763 985.733 947.637 986.924 949.757 989.043C951.876 991.163 953.067 994.037 953.067 997.035C953.067 1000.03 951.876 1002.91 949.757 1005.03C947.637 1007.15 944.763 1008.34 941.765 1008.34C938.768 1008.34 935.893 1007.15 933.774 1005.03C931.654 1002.91 930.464 1000.03 930.464 997.035C930.464 994.037 931.654 991.163 933.774 989.043C935.893 986.924 938.768 985.733 941.765 985.733ZM978.496 985.733C981.493 985.733 984.368 986.924 986.487 989.043C988.607 991.163 989.798 994.037 989.798 997.035C989.798 1000.03 988.607 1002.91 986.487 1005.03C984.368 1007.15 981.493 1008.34 978.496 1008.34C975.498 1008.34 972.624 1007.15 970.504 1005.03C968.385 1002.91 967.194 1000.03 967.194 997.035C967.194 994.037 968.385 991.163 970.504 989.043C972.624 986.924 975.498 985.733 978.496 985.733Z" fill="url(#paint3_linear_191_982)" fill-opacity="0.25"/>
<path d="M797.668 844.461C800.666 844.461 803.54 845.652 805.66 847.771C807.779 849.891 808.97 852.766 808.97 855.763C808.97 858.76 807.779 861.635 805.66 863.755C803.54 865.874 800.666 867.065 797.668 867.065C794.671 867.065 791.796 865.874 789.677 863.755C787.557 861.635 786.366 858.76 786.366 855.763C786.366 852.766 787.557 849.891 789.677 847.771C791.796 845.652 794.671 844.461 797.668 844.461ZM834.399 844.461C837.396 844.461 840.271 845.652 842.39 847.771C844.51 849.891 845.701 852.766 845.701 855.763C845.701 858.76 844.51 861.635 842.39 863.755C840.271 865.874 837.396 867.065 834.399 867.065C831.401 867.065 828.527 865.874 826.407 863.755C824.288 861.635 823.097 858.76 823.097 855.763C823.097 852.766 824.288 849.891 826.407 847.771C828.527 845.652 831.401 844.461 834.399 844.461ZM871.129 844.461C874.127 844.461 877.001 845.652 879.121 847.771C881.24 849.891 882.431 852.766 882.431 855.763C882.431 858.76 881.24 861.635 879.121 863.755C877.001 865.874 874.127 867.065 871.129 867.065C868.132 867.065 865.257 865.874 863.138 863.755C861.018 861.635 859.828 858.76 859.828 855.763C859.828 852.766 861.018 849.891 863.138 847.771C865.257 845.652 868.132 844.461 871.129 844.461ZM797.668 807.731C800.666 807.731 803.54 808.921 805.66 811.041C807.779 813.16 808.97 816.035 808.97 819.032C808.97 822.03 807.779 824.904 805.66 827.024C803.54 829.143 800.666 830.334 797.668 830.334C794.671 830.334 791.796 829.143 789.677 827.024C787.557 824.904 786.366 822.03 786.366 819.032C786.366 816.035 787.557 813.16 789.677 811.041C791.796 808.921 794.671 807.731 797.668 807.731ZM834.399 807.731C837.396 807.731 840.271 808.921 842.39 811.041C844.51 813.16 845.701 816.035 845.701 819.032C845.701 822.03 844.51 824.904 842.39 827.024C840.271 829.143 837.396 830.334 834.399 830.334C831.401 830.334 828.527 829.143 826.407 827.024C824.288 824.904 823.097 822.03 823.097 819.032C823.097 816.035 824.288 813.16 826.407 811.041C828.527 808.921 831.401 807.731 834.399 807.731ZM871.129 807.731C874.127 807.731 877.001 808.921 879.121 811.041C881.24 813.16 882.431 816.035 882.431 819.032C882.431 822.03 881.24 824.904 879.121 827.024C877.001 829.143 874.127 830.334 871.129 830.334C868.132 830.334 865.257 829.143 863.138 827.024C861.018 824.904 859.828 822.03 859.828 819.032C859.828 816.035 861.018 813.16 863.138 811.041C865.257 808.921 868.132 807.731 871.129 807.731ZM834.399 771C837.396 771 840.271 772.191 842.39 774.31C844.51 776.43 845.701 779.304 845.701 782.302C845.701 785.299 844.51 788.174 842.39 790.293C840.271 792.413 837.396 793.603 834.399 793.603C831.401 793.603 828.527 792.413 826.407 790.293C824.288 788.174 823.097 785.299 823.097 782.302C823.097 779.304 824.288 776.43 826.407 774.31C828.527 772.191 831.401 771 834.399 771ZM871.129 771C874.127 771 877.001 772.191 879.121 774.31C881.24 776.43 882.431 779.304 882.431 782.302C882.431 785.299 881.24 788.174 879.121 790.293C877.001 792.413 874.127 793.603 871.129 793.603C868.132 793.603 865.257 792.413 863.138 790.293C861.018 788.174 859.828 785.299 859.828 782.302C859.828 779.304 861.018 776.43 863.138 774.31C865.257 772.191 868.132 771 871.129 771Z" fill="url(#paint4_linear_191_982)" fill-opacity="0.25"/>
<path d="M1012.4 844.461C1015.4 844.461 1018.27 845.652 1020.39 847.771C1022.51 849.891 1023.7 852.766 1023.7 855.763C1023.7 858.76 1022.51 861.635 1020.39 863.755C1018.27 865.874 1015.4 867.065 1012.4 867.065C1009.4 867.065 1006.53 865.874 1004.41 863.755C1002.29 861.635 1001.1 858.76 1001.1 855.763C1001.1 852.766 1002.29 849.891 1004.41 847.771C1006.53 845.652 1009.4 844.461 1012.4 844.461ZM1049.13 844.461C1052.13 844.461 1055 845.652 1057.12 847.771C1059.24 849.891 1060.43 852.766 1060.43 855.763C1060.43 858.76 1059.24 861.635 1057.12 863.755C1055 865.874 1052.13 867.065 1049.13 867.065C1046.13 867.065 1043.26 865.874 1041.14 863.755C1039.02 861.635 1037.83 858.76 1037.83 855.763C1037.83 852.766 1039.02 849.891 1041.14 847.771C1043.26 845.652 1046.13 844.461 1049.13 844.461ZM1012.4 807.731C1015.4 807.731 1018.27 808.921 1020.39 811.041C1022.51 813.16 1023.7 816.035 1023.7 819.032C1023.7 822.03 1022.51 824.904 1020.39 827.024C1018.27 829.143 1015.4 830.334 1012.4 830.334C1009.4 830.334 1006.53 829.143 1004.41 827.024C1002.29 824.904 1001.1 822.03 1001.1 819.032C1001.1 816.035 1002.29 813.16 1004.41 811.041C1006.53 808.921 1009.4 807.731 1012.4 807.731Z" fill="url(#paint5_linear_191_982)" fill-opacity="0.25"/>
<path d="M797.668 1059.19C800.666 1059.19 803.54 1060.38 805.66 1062.5C807.779 1064.62 808.97 1067.5 808.97 1070.5C808.97 1073.49 807.779 1076.37 805.66 1078.49C803.54 1080.61 800.666 1081.8 797.668 1081.8C794.671 1081.8 791.796 1080.61 789.677 1078.49C787.557 1076.37 786.366 1073.49 786.366 1070.5C786.366 1067.5 787.557 1064.62 789.677 1062.5C791.796 1060.38 794.671 1059.19 797.668 1059.19ZM834.399 1059.19C837.396 1059.19 840.271 1060.38 842.39 1062.5C844.51 1064.62 845.701 1067.5 845.701 1070.5C845.701 1073.49 844.51 1076.37 842.39 1078.49C840.271 1080.61 837.396 1081.8 834.399 1081.8C831.401 1081.8 828.527 1080.61 826.407 1078.49C824.288 1076.37 823.097 1073.49 823.097 1070.5C823.097 1067.5 824.288 1064.62 826.407 1062.5C828.527 1060.38 831.401 1059.19 834.399 1059.19ZM871.129 1059.19C874.127 1059.19 877.001 1060.38 879.121 1062.5C881.24 1064.62 882.431 1067.5 882.431 1070.5C882.431 1073.49 881.24 1076.37 879.121 1078.49C877.001 1080.61 874.127 1081.8 871.129 1081.8C868.132 1081.8 865.257 1080.61 863.138 1078.49C861.018 1076.37 859.828 1073.49 859.828 1070.5C859.828 1067.5 861.018 1064.62 863.138 1062.5C865.257 1060.38 868.132 1059.19 871.129 1059.19ZM797.668 1022.46C800.666 1022.46 803.54 1023.65 805.66 1025.77C807.779 1027.89 808.97 1030.77 808.97 1033.77C808.97 1036.76 807.779 1039.64 805.66 1041.76C803.54 1043.88 800.666 1045.07 797.668 1045.07C794.671 1045.07 791.796 1043.88 789.677 1041.76C787.557 1039.64 786.366 1036.76 786.366 1033.77C786.366 1030.77 787.557 1027.89 789.677 1025.77C791.796 1023.65 794.671 1022.46 797.668 1022.46ZM834.399 1022.46C837.396 1022.46 840.271 1023.65 842.39 1025.77C844.51 1027.89 845.701 1030.77 845.701 1033.77C845.701 1036.76 844.51 1039.64 842.39 1041.76C840.271 1043.88 837.396 1045.07 834.399 1045.07C831.401 1045.07 828.527 1043.88 826.407 1041.76C824.288 1039.64 823.097 1036.76 823.097 1033.77C823.097 1030.77 824.288 1027.89 826.407 1025.77C828.527 1023.65 831.401 1022.46 834.399 1022.46ZM871.129 1022.46C874.127 1022.46 877.001 1023.65 879.121 1025.77C881.24 1027.89 882.431 1030.77 882.431 1033.77C882.431 1036.76 881.24 1039.64 879.121 1041.76C877.001 1043.88 874.127 1045.07 871.129 1045.07C868.132 1045.07 865.257 1043.88 863.138 1041.76C861.018 1039.64 859.828 1036.76 859.828 1033.77C859.828 1030.77 861.018 1027.89 863.138 1025.77C865.257 1023.65 868.132 1022.46 871.129 1022.46ZM797.668 985.733C800.666 985.733 803.54 986.924 805.66 989.043C807.779 991.163 808.97 994.037 808.97 997.035C808.97 1000.03 807.779 1002.91 805.66 1005.03C803.54 1007.15 800.666 1008.34 797.668 1008.34C794.671 1008.34 791.796 1007.15 789.677 1005.03C787.557 1002.91 786.366 1000.03 786.366 997.035C786.366 994.037 787.557 991.163 789.677 989.043C791.796 986.924 794.671 985.733 797.668 985.733ZM834.399 985.733C837.396 985.733 840.271 986.924 842.39 989.043C844.51 991.163 845.701 994.037 845.701 997.035C845.701 1000.03 844.51 1002.91 842.39 1005.03C840.271 1007.15 837.396 1008.34 834.399 1008.34C831.401 1008.34 828.527 1007.15 826.407 1005.03C824.288 1002.91 823.097 1000.03 823.097 997.035C823.097 994.037 824.288 991.163 826.407 989.043C828.527 986.924 831.401 985.733 834.399 985.733ZM871.129 985.733C874.127 985.733 877.001 986.924 879.121 989.043C881.24 991.163 882.431 994.037 882.431 997.035C882.431 1000.03 881.24 1002.91 879.121 1005.03C877.001 1007.15 874.127 1008.34 871.129 1008.34C868.132 1008.34 865.257 1007.15 863.138 1005.03C861.018 1002.91 859.828 1000.03 859.828 997.035C859.828 994.037 861.018 991.163 863.138 989.043C865.257 986.924 868.132 985.733 871.129 985.733Z" fill="url(#paint6_linear_191_982)" fill-opacity="0.25"/>
<path d="M1012.4 1059.19C1015.4 1059.19 1018.27 1060.38 1020.39 1062.5C1022.51 1064.62 1023.7 1067.5 1023.7 1070.5C1023.7 1073.49 1022.51 1076.37 1020.39 1078.49C1018.27 1080.61 1015.4 1081.8 1012.4 1081.8C1009.4 1081.8 1006.53 1080.61 1004.41 1078.49C1002.29 1076.37 1001.1 1073.49 1001.1 1070.5C1001.1 1067.5 1002.29 1064.62 1004.41 1062.5C1006.53 1060.38 1009.4 1059.19 1012.4 1059.19ZM1049.13 1059.19C1052.13 1059.19 1055 1060.38 1057.12 1062.5C1059.24 1064.62 1060.43 1067.5 1060.43 1070.5C1060.43 1073.49 1059.24 1076.37 1057.12 1078.49C1055 1080.61 1052.13 1081.8 1049.13 1081.8C1046.13 1081.8 1043.26 1080.61 1041.14 1078.49C1039.02 1076.37 1037.83 1073.49 1037.83 1070.5C1037.83 1067.5 1039.02 1064.62 1041.14 1062.5C1043.26 1060.38 1046.13 1059.19 1049.13 1059.19ZM1012.4 1022.46C1015.4 1022.46 1018.27 1023.65 1020.39 1025.77C1022.51 1027.89 1023.7 1030.77 1023.7 1033.77C1023.7 1036.76 1022.51 1039.64 1020.39 1041.76C1018.27 1043.88 1015.4 1045.07 1012.4 1045.07C1009.4 1045.07 1006.53 1043.88 1004.41 1041.76C1002.29 1039.64 1001.1 1036.76 1001.1 1033.77C1001.1 1030.77 1002.29 1027.89 1004.41 1025.77C1006.53 1023.65 1009.4 1022.46 1012.4 1022.46ZM1049.13 1022.46C1052.13 1022.46 1055 1023.65 1057.12 1025.77C1059.24 1027.89 1060.43 1030.77 1060.43 1033.77C1060.43 1036.76 1059.24 1039.64 1057.12 1041.76C1055 1043.88 1052.13 1045.07 1049.13 1045.07C1046.13 1045.07 1043.26 1043.88 1041.14 1041.76C1039.02 1039.64 1037.83 1036.76 1037.83 1033.77C1037.83 1030.77 1039.02 1027.89 1041.14 1025.77C1043.26 1023.65 1046.13 1022.46 1049.13 1022.46ZM1085.86 1022.46C1088.86 1022.46 1091.73 1023.65 1093.85 1025.77C1095.97 1027.89 1097.16 1030.77 1097.16 1033.77C1097.16 1036.76 1095.97 1039.64 1093.85 1041.76C1091.73 1043.88 1088.86 1045.07 1085.86 1045.07C1082.86 1045.07 1079.99 1043.88 1077.87 1041.76C1075.75 1039.64 1074.56 1036.76 1074.56 1033.77C1074.56 1030.77 1075.75 1027.89 1077.87 1025.77C1079.99 1023.65 1082.86 1022.46 1085.86 1022.46ZM1012.4 985.733C1015.4 985.733 1018.27 986.924 1020.39 989.043C1022.51 991.163 1023.7 994.037 1023.7 997.035C1023.7 1000.03 1022.51 1002.91 1020.39 1005.03C1018.27 1007.15 1015.4 1008.34 1012.4 1008.34C1009.4 1008.34 1006.53 1007.15 1004.41 1005.03C1002.29 1002.91 1001.1 1000.03 1001.1 997.035C1001.1 994.037 1002.29 991.163 1004.41 989.043C1006.53 986.924 1009.4 985.733 1012.4 985.733ZM1049.13 985.733C1052.13 985.733 1055 986.924 1057.12 989.043C1059.24 991.163 1060.43 994.037 1060.43 997.035C1060.43 1000.03 1059.24 1002.91 1057.12 1005.03C1055 1007.15 1052.13 1008.34 1049.13 1008.34C1046.13 1008.34 1043.26 1007.15 1041.14 1005.03C1039.02 1002.91 1037.83 1000.03 1037.83 997.035C1037.83 994.037 1039.02 991.163 1041.14 989.043C1043.26 986.924 1046.13 985.733 1049.13 985.733ZM1085.86 985.733C1088.86 985.733 1091.73 986.924 1093.85 989.043C1095.97 991.163 1097.16 994.037 1097.16 997.035C1097.16 1000.03 1095.97 1002.91 1093.85 1005.03C1091.73 1007.15 1088.86 1008.34 1085.86 1008.34C1082.86 1008.34 1079.99 1007.15 1077.87 1005.03C1075.75 1002.91 1074.56 1000.03 1074.56 997.035C1074.56 994.037 1075.75 991.163 1077.87 989.043C1079.99 986.924 1082.86 985.733 1085.86 985.733Z" fill="url(#paint7_linear_191_982)" fill-opacity="0.25"/>
<path d="M690.302 951.828C693.299 951.828 696.174 953.018 698.293 955.138C700.413 957.257 701.603 960.132 701.603 963.129C701.603 966.127 700.413 969.001 698.293 971.121C696.174 973.24 693.299 974.431 690.302 974.431C687.304 974.431 684.43 973.24 682.31 971.121C680.191 969.001 679 966.127 679 963.129C679 960.132 680.191 957.257 682.31 955.138C684.43 953.018 687.304 951.828 690.302 951.828ZM727.032 951.828C730.03 951.828 732.904 953.018 735.024 955.138C737.143 957.257 738.334 960.132 738.334 963.129C738.334 966.127 737.143 969.001 735.024 971.121C732.904 973.24 730.03 974.431 727.032 974.431C724.035 974.431 721.16 973.24 719.041 971.121C716.921 969.001 715.731 966.127 715.731 963.129C715.731 960.132 716.921 957.257 719.041 955.138C721.16 953.018 724.035 951.828 727.032 951.828ZM763.763 951.828C766.76 951.828 769.635 953.018 771.755 955.138C773.874 957.257 775.065 960.132 775.065 963.129C775.065 966.127 773.874 969.001 771.755 971.121C769.635 973.24 766.76 974.431 763.763 974.431C760.766 974.431 757.891 973.24 755.771 971.121C753.652 969.001 752.461 966.127 752.461 963.129C752.461 960.132 753.652 957.257 755.771 955.138C757.891 953.018 760.766 951.828 763.763 951.828ZM690.302 915.097C693.299 915.097 696.174 916.288 698.293 918.407C700.413 920.527 701.603 923.401 701.603 926.399C701.603 929.396 700.413 932.271 698.293 934.39C696.174 936.51 693.299 937.701 690.302 937.701C687.304 937.701 684.43 936.51 682.31 934.39C680.191 932.271 679 929.396 679 926.399C679 923.401 680.191 920.527 682.31 918.407C684.43 916.288 687.304 915.097 690.302 915.097ZM727.032 915.097C730.03 915.097 732.904 916.288 735.024 918.407C737.143 920.527 738.334 923.401 738.334 926.399C738.334 929.396 737.143 932.271 735.024 934.39C732.904 936.51 730.03 937.701 727.032 937.701C724.035 937.701 721.16 936.51 719.041 934.39C716.921 932.271 715.731 929.396 715.731 926.399C715.731 923.401 716.921 920.527 719.041 918.407C721.16 916.288 724.035 915.097 727.032 915.097ZM763.763 915.097C766.76 915.097 769.635 916.288 771.755 918.407C773.874 920.527 775.065 923.401 775.065 926.399C775.065 929.396 773.874 932.271 771.755 934.39C769.635 936.51 766.76 937.701 763.763 937.701C760.766 937.701 757.891 936.51 755.771 934.39C753.652 932.271 752.461 929.396 752.461 926.399C752.461 923.401 753.652 920.527 755.771 918.407C757.891 916.288 760.766 915.097 763.763 915.097ZM727.032 878.366C730.03 878.366 732.904 879.557 735.024 881.677C737.143 883.796 738.334 886.671 738.334 889.668C738.334 892.666 737.143 895.54 735.024 897.66C732.904 899.779 730.03 900.97 727.032 900.97C724.035 900.97 721.16 899.779 719.041 897.66C716.921 895.54 715.731 892.666 715.731 889.668C715.731 886.671 716.921 883.796 719.041 881.677C721.16 879.557 724.035 878.366 727.032 878.366ZM763.763 878.366C766.76 878.366 769.635 879.557 771.755 881.677C773.874 883.796 775.065 886.671 775.065 889.668C775.065 892.666 773.874 895.54 771.755 897.66C769.635 899.779 766.76 900.97 763.763 900.97C760.766 900.97 757.891 899.779 755.771 897.66C753.652 895.54 752.461 892.666 752.461 889.668C752.461 886.671 753.652 883.796 755.771 881.677C757.891 879.557 760.766 878.366 763.763 878.366Z" fill="url(#paint8_linear_191_982)" fill-opacity="0.25"/>
<path d="M905.035 951.828C908.032 951.828 910.907 953.018 913.026 955.138C915.146 957.257 916.336 960.132 916.336 963.129C916.336 966.127 915.146 969.001 913.026 971.121C910.907 973.24 908.032 974.431 905.035 974.431C902.037 974.431 899.163 973.24 897.043 971.121C894.924 969.001 893.733 966.127 893.733 963.129C893.733 960.132 894.924 957.257 897.043 955.138C899.163 953.018 902.037 951.828 905.035 951.828ZM941.765 951.828C944.763 951.828 947.637 953.018 949.757 955.138C951.876 957.257 953.067 960.132 953.067 963.129C953.067 966.127 951.876 969.001 949.757 971.121C947.637 973.24 944.763 974.431 941.765 974.431C938.768 974.431 935.893 973.24 933.774 971.121C931.654 969.001 930.464 966.127 930.464 963.129C930.464 960.132 931.654 957.257 933.774 955.138C935.893 953.018 938.768 951.828 941.765 951.828ZM978.496 951.828C981.493 951.828 984.368 953.018 986.487 955.138C988.607 957.257 989.798 960.132 989.798 963.129C989.798 966.127 988.607 969.001 986.487 971.121C984.368 973.24 981.493 974.431 978.496 974.431C975.498 974.431 972.624 973.24 970.504 971.121C968.385 969.001 967.194 966.127 967.194 963.129C967.194 960.132 968.385 957.257 970.504 955.138C972.624 953.018 975.498 951.828 978.496 951.828ZM905.035 915.097C908.032 915.097 910.907 916.288 913.026 918.407C915.146 920.527 916.336 923.401 916.336 926.399C916.336 929.396 915.146 932.271 913.026 934.39C910.907 936.51 908.032 937.701 905.035 937.701C902.037 937.701 899.163 936.51 897.043 934.39C894.924 932.271 893.733 929.396 893.733 926.399C893.733 923.401 894.924 920.527 897.043 918.407C899.163 916.288 902.037 915.097 905.035 915.097ZM941.765 915.097C944.763 915.097 947.637 916.288 949.757 918.407C951.876 920.527 953.067 923.401 953.067 926.399C953.067 929.396 951.876 932.271 949.757 934.39C947.637 936.51 944.763 937.701 941.765 937.701C938.768 937.701 935.893 936.51 933.774 934.39C931.654 932.271 930.464 929.396 930.464 926.399C930.464 923.401 931.654 920.527 933.774 918.407C935.893 916.288 938.768 915.097 941.765 915.097ZM978.496 915.097C981.493 915.097 984.368 916.288 986.487 918.407C988.607 920.527 989.798 923.401 989.798 926.399C989.798 929.396 988.607 932.271 986.487 934.39C984.368 936.51 981.493 937.701 978.496 937.701C975.498 937.701 972.624 936.51 970.504 934.39C968.385 932.271 967.194 929.396 967.194 926.399C967.194 923.401 968.385 920.527 970.504 918.407C972.624 916.288 975.498 915.097 978.496 915.097ZM905.035 878.366C908.032 878.366 910.907 879.557 913.026 881.677C915.146 883.796 916.336 886.671 916.336 889.668C916.336 892.666 915.146 895.54 913.026 897.66C910.907 899.779 908.032 900.97 905.035 900.97C902.037 900.97 899.163 899.779 897.043 897.66C894.924 895.54 893.733 892.666 893.733 889.668C893.733 886.671 894.924 883.796 897.043 881.677C899.163 879.557 902.037 878.366 905.035 878.366ZM941.765 878.366C944.763 878.366 947.637 879.557 949.757 881.677C951.876 883.796 953.067 886.671 953.067 889.668C953.067 892.666 951.876 895.54 949.757 897.66C947.637 899.779 944.763 900.97 941.765 900.97C938.768 900.97 935.893 899.779 933.774 897.66C931.654 895.54 930.464 892.666 930.464 889.668C930.464 886.671 931.654 883.796 933.774 881.677C935.893 879.557 938.768 878.366 941.765 878.366ZM978.496 878.366C981.493 878.366 984.368 879.557 986.487 881.677C988.607 883.796 989.798 886.671 989.798 889.668C989.798 892.666 988.607 895.54 986.487 897.66C984.368 899.779 981.493 900.97 978.496 900.97C975.498 900.97 972.624 899.779 970.504 897.66C968.385 895.54 967.194 892.666 967.194 889.668C967.194 886.671 968.385 883.796 970.504 881.677C972.624 879.557 975.498 878.366 978.496 878.366Z" fill="url(#paint9_linear_191_982)" fill-opacity="0.25"/>
<path d="M763.763 1129.83C766.76 1129.83 769.635 1131.02 771.755 1133.14C773.874 1135.26 775.065 1138.13 775.065 1141.13C775.065 1144.13 773.874 1147 771.755 1149.12C769.635 1151.24 766.76 1152.43 763.763 1152.43C760.766 1152.43 757.891 1151.24 755.771 1149.12C753.652 1147 752.461 1144.13 752.461 1141.13C752.461 1138.13 753.652 1135.26 755.771 1133.14C757.891 1131.02 760.766 1129.83 763.763 1129.83ZM727.032 1093.1C730.03 1093.1 732.904 1094.29 735.024 1096.41C737.143 1098.53 738.334 1101.4 738.334 1104.4C738.334 1107.4 737.143 1110.27 735.024 1112.39C732.904 1114.51 730.03 1115.7 727.032 1115.7C724.035 1115.7 721.16 1114.51 719.041 1112.39C716.921 1110.27 715.731 1107.4 715.731 1104.4C715.731 1101.4 716.921 1098.53 719.041 1096.41C721.16 1094.29 724.035 1093.1 727.032 1093.1ZM763.763 1093.1C766.76 1093.1 769.635 1094.29 771.755 1096.41C773.874 1098.53 775.065 1101.4 775.065 1104.4C775.065 1107.4 773.874 1110.27 771.755 1112.39C769.635 1114.51 766.76 1115.7 763.763 1115.7C760.766 1115.7 757.891 1114.51 755.771 1112.39C753.652 1110.27 752.461 1107.4 752.461 1104.4C752.461 1101.4 753.652 1098.53 755.771 1096.41C757.891 1094.29 760.766 1093.1 763.763 1093.1Z" fill="url(#paint10_linear_191_982)" fill-opacity="0.25"/>
<path d="M905.035 1166.56C908.032 1166.56 910.907 1167.75 913.026 1169.87C915.146 1171.99 916.336 1174.86 916.336 1177.86C916.336 1180.86 915.146 1183.73 913.026 1185.85C910.907 1187.97 908.032 1189.16 905.035 1189.16C902.037 1189.16 899.163 1187.97 897.043 1185.85C894.924 1183.73 893.733 1180.86 893.733 1177.86C893.733 1174.86 894.924 1171.99 897.043 1169.87C899.163 1167.75 902.037 1166.56 905.035 1166.56ZM941.765 1166.56C944.763 1166.56 947.637 1167.75 949.757 1169.87C951.876 1171.99 953.067 1174.86 953.067 1177.86C953.067 1180.86 951.876 1183.73 949.757 1185.85C947.637 1187.97 944.763 1189.16 941.765 1189.16C938.768 1189.16 935.893 1187.97 933.774 1185.85C931.654 1183.73 930.464 1180.86 930.464 1177.86C930.464 1174.86 931.654 1171.99 933.774 1169.87C935.893 1167.75 938.768 1166.56 941.765 1166.56ZM905.035 1129.83C908.032 1129.83 910.907 1131.02 913.026 1133.14C915.146 1135.26 916.336 1138.13 916.336 1141.13C916.336 1144.13 915.146 1147 913.026 1149.12C910.907 1151.24 908.032 1152.43 905.035 1152.43C902.037 1152.43 899.163 1151.24 897.043 1149.12C894.924 1147 893.733 1144.13 893.733 1141.13C893.733 1138.13 894.924 1135.26 897.043 1133.14C899.163 1131.02 902.037 1129.83 905.035 1129.83ZM941.765 1129.83C944.763 1129.83 947.637 1131.02 949.757 1133.14C951.876 1135.26 953.067 1138.13 953.067 1141.13C953.067 1144.13 951.876 1147 949.757 1149.12C947.637 1151.24 944.763 1152.43 941.765 1152.43C938.768 1152.43 935.893 1151.24 933.774 1149.12C931.654 1147 930.464 1144.13 930.464 1141.13C930.464 1138.13 931.654 1135.26 933.774 1133.14C935.893 1131.02 938.768 1129.83 941.765 1129.83ZM978.496 1129.83C981.493 1129.83 984.368 1131.02 986.487 1133.14C988.607 1135.26 989.798 1138.13 989.798 1141.13C989.798 1144.13 988.607 1147 986.487 1149.12C984.368 1151.24 981.493 1152.43 978.496 1152.43C975.498 1152.43 972.624 1151.24 970.504 1149.12C968.385 1147 967.194 1144.13 967.194 1141.13C967.194 1138.13 968.385 1135.26 970.504 1133.14C972.624 1131.02 975.498 1129.83 978.496 1129.83ZM905.035 1093.1C908.032 1093.1 910.907 1094.29 913.026 1096.41C915.146 1098.53 916.336 1101.4 916.336 1104.4C916.336 1107.4 915.146 1110.27 913.026 1112.39C910.907 1114.51 908.032 1115.7 905.035 1115.7C902.037 1115.7 899.163 1114.51 897.043 1112.39C894.924 1110.27 893.733 1107.4 893.733 1104.4C893.733 1101.4 894.924 1098.53 897.043 1096.41C899.163 1094.29 902.037 1093.1 905.035 1093.1ZM941.765 1093.1C944.763 1093.1 947.637 1094.29 949.757 1096.41C951.876 1098.53 953.067 1101.4 953.067 1104.4C953.067 1107.4 951.876 1110.27 949.757 1112.39C947.637 1114.51 944.763 1115.7 941.765 1115.7C938.768 1115.7 935.893 1114.51 933.774 1112.39C931.654 1110.27 930.464 1107.4 930.464 1104.4C930.464 1101.4 931.654 1098.53 933.774 1096.41C935.893 1094.29 938.768 1093.1 941.765 1093.1ZM978.496 1093.1C981.493 1093.1 984.368 1094.29 986.487 1096.41C988.607 1098.53 989.798 1101.4 989.798 1104.4C989.798 1107.4 988.607 1110.27 986.487 1112.39C984.368 1114.51 981.493 1115.7 978.496 1115.7C975.498 1115.7 972.624 1114.51 970.504 1112.39C968.385 1110.27 967.194 1107.4 967.194 1104.4C967.194 1101.4 968.385 1098.53 970.504 1096.41C972.624 1094.29 975.498 1093.1 978.496 1093.1Z" fill="url(#paint11_linear_191_982)" fill-opacity="0.25"/>
<path d="M797.668 951.828C800.666 951.828 803.54 953.018 805.66 955.138C807.779 957.257 808.97 960.132 808.97 963.129C808.97 966.127 807.779 969.001 805.66 971.121C803.54 973.24 800.666 974.431 797.668 974.431C794.671 974.431 791.796 973.24 789.677 971.121C787.557 969.001 786.366 966.127 786.366 963.129C786.366 960.132 787.557 957.257 789.677 955.138C791.796 953.018 794.671 951.828 797.668 951.828ZM834.399 951.828C837.396 951.828 840.271 953.018 842.39 955.138C844.51 957.257 845.701 960.132 845.701 963.129C845.701 966.127 844.51 969.001 842.39 971.121C840.271 973.24 837.396 974.431 834.399 974.431C831.401 974.431 828.527 973.24 826.407 971.121C824.288 969.001 823.097 966.127 823.097 963.129C823.097 960.132 824.288 957.257 826.407 955.138C828.527 953.018 831.401 951.828 834.399 951.828ZM871.129 951.828C874.127 951.828 877.001 953.018 879.121 955.138C881.24 957.257 882.431 960.132 882.431 963.129C882.431 966.127 881.24 969.001 879.121 971.121C877.001 973.24 874.127 974.431 871.129 974.431C868.132 974.431 865.257 973.24 863.138 971.121C861.018 969.001 859.828 966.127 859.828 963.129C859.828 960.132 861.018 957.257 863.138 955.138C865.257 953.018 868.132 951.828 871.129 951.828ZM797.668 915.097C800.666 915.097 803.54 916.288 805.66 918.407C807.779 920.527 808.97 923.401 808.97 926.399C808.97 929.396 807.779 932.271 805.66 934.39C803.54 936.51 800.666 937.701 797.668 937.701C794.671 937.701 791.796 936.51 789.677 934.39C787.557 932.271 786.366 929.396 786.366 926.399C786.366 923.401 787.557 920.527 789.677 918.407C791.796 916.288 794.671 915.097 797.668 915.097ZM834.399 915.097C837.396 915.097 840.271 916.288 842.39 918.407C844.51 920.527 845.701 923.401 845.701 926.399C845.701 929.396 844.51 932.271 842.39 934.39C840.271 936.51 837.396 937.701 834.399 937.701C831.401 937.701 828.527 936.51 826.407 934.39C824.288 932.271 823.097 929.396 823.097 926.399C823.097 923.401 824.288 920.527 826.407 918.407C828.527 916.288 831.401 915.097 834.399 915.097ZM871.129 915.097C874.127 915.097 877.001 916.288 879.121 918.407C881.24 920.527 882.431 923.401 882.431 926.399C882.431 929.396 881.24 932.271 879.121 934.39C877.001 936.51 874.127 937.701 871.129 937.701C868.132 937.701 865.257 936.51 863.138 934.39C861.018 932.271 859.828 929.396 859.828 926.399C859.828 923.401 861.018 920.527 863.138 918.407C865.257 916.288 868.132 915.097 871.129 915.097ZM797.668 878.366C800.666 878.366 803.54 879.557 805.66 881.677C807.779 883.796 808.97 886.671 808.97 889.668C808.97 892.666 807.779 895.54 805.66 897.66C803.54 899.779 800.666 900.97 797.668 900.97C794.671 900.97 791.796 899.779 789.677 897.66C787.557 895.54 786.366 892.666 786.366 889.668C786.366 886.671 787.557 883.796 789.677 881.677C791.796 879.557 794.671 878.366 797.668 878.366ZM834.399 878.366C837.396 878.366 840.271 879.557 842.39 881.677C844.51 883.796 845.701 886.671 845.701 889.668C845.701 892.666 844.51 895.54 842.39 897.66C840.271 899.779 837.396 900.97 834.399 900.97C831.401 900.97 828.527 899.779 826.407 897.66C824.288 895.54 823.097 892.666 823.097 889.668C823.097 886.671 824.288 883.796 826.407 881.677C828.527 879.557 831.401 878.366 834.399 878.366ZM871.129 878.366C874.127 878.366 877.001 879.557 879.121 881.677C881.24 883.796 882.431 886.671 882.431 889.668C882.431 892.666 881.24 895.54 879.121 897.66C877.001 899.779 874.127 900.97 871.129 900.97C868.132 900.97 865.257 899.779 863.138 897.66C861.018 895.54 859.828 892.666 859.828 889.668C859.828 886.671 861.018 883.796 863.138 881.677C865.257 879.557 868.132 878.366 871.129 878.366Z" fill="url(#paint12_linear_191_982)" fill-opacity="0.25"/>
<path d="M1012.4 951.828C1015.4 951.828 1018.27 953.018 1020.39 955.138C1022.51 957.257 1023.7 960.132 1023.7 963.129C1023.7 966.127 1022.51 969.001 1020.39 971.121C1018.27 973.24 1015.4 974.431 1012.4 974.431C1009.4 974.431 1006.53 973.24 1004.41 971.121C1002.29 969.001 1001.1 966.127 1001.1 963.129C1001.1 960.132 1002.29 957.257 1004.41 955.138C1006.53 953.018 1009.4 951.828 1012.4 951.828ZM1049.13 951.828C1052.13 951.828 1055 953.018 1057.12 955.138C1059.24 957.257 1060.43 960.132 1060.43 963.129C1060.43 966.127 1059.24 969.001 1057.12 971.121C1055 973.24 1052.13 974.431 1049.13 974.431C1046.13 974.431 1043.26 973.24 1041.14 971.121C1039.02 969.001 1037.83 966.127 1037.83 963.129C1037.83 960.132 1039.02 957.257 1041.14 955.138C1043.26 953.018 1046.13 951.828 1049.13 951.828ZM1085.86 951.828C1088.86 951.828 1091.73 953.018 1093.85 955.138C1095.97 957.257 1097.16 960.132 1097.16 963.129C1097.16 966.127 1095.97 969.001 1093.85 971.121C1091.73 973.24 1088.86 974.431 1085.86 974.431C1082.86 974.431 1079.99 973.24 1077.87 971.121C1075.75 969.001 1074.56 966.127 1074.56 963.129C1074.56 960.132 1075.75 957.257 1077.87 955.138C1079.99 953.018 1082.86 951.828 1085.86 951.828ZM1012.4 915.097C1015.4 915.097 1018.27 916.288 1020.39 918.407C1022.51 920.527 1023.7 923.401 1023.7 926.399C1023.7 929.396 1022.51 932.271 1020.39 934.39C1018.27 936.51 1015.4 937.701 1012.4 937.701C1009.4 937.701 1006.53 936.51 1004.41 934.39C1002.29 932.271 1001.1 929.396 1001.1 926.399C1001.1 923.401 1002.29 920.527 1004.41 918.407C1006.53 916.288 1009.4 915.097 1012.4 915.097ZM1049.13 915.097C1052.13 915.097 1055 916.288 1057.12 918.407C1059.24 920.527 1060.43 923.401 1060.43 926.399C1060.43 929.396 1059.24 932.271 1057.12 934.39C1055 936.51 1052.13 937.701 1049.13 937.701C1046.13 937.701 1043.26 936.51 1041.14 934.39C1039.02 932.271 1037.83 929.396 1037.83 926.399C1037.83 923.401 1039.02 920.527 1041.14 918.407C1043.26 916.288 1046.13 915.097 1049.13 915.097ZM1085.86 915.097C1088.86 915.097 1091.73 916.288 1093.85 918.407C1095.97 920.527 1097.16 923.401 1097.16 926.399C1097.16 929.396 1095.97 932.271 1093.85 934.39C1091.73 936.51 1088.86 937.701 1085.86 937.701C1082.86 937.701 1079.99 936.51 1077.87 934.39C1075.75 932.271 1074.56 929.396 1074.56 926.399C1074.56 923.401 1075.75 920.527 1077.87 918.407C1079.99 916.288 1082.86 915.097 1085.86 915.097ZM1012.4 878.366C1015.4 878.366 1018.27 879.557 1020.39 881.677C1022.51 883.796 1023.7 886.671 1023.7 889.668C1023.7 892.666 1022.51 895.54 1020.39 897.66C1018.27 899.779 1015.4 900.97 1012.4 900.97C1009.4 900.97 1006.53 899.779 1004.41 897.66C1002.29 895.54 1001.1 892.666 1001.1 889.668C1001.1 886.671 1002.29 883.796 1004.41 881.677C1006.53 879.557 1009.4 878.366 1012.4 878.366ZM1049.13 878.366C1052.13 878.366 1055 879.557 1057.12 881.677C1059.24 883.796 1060.43 886.671 1060.43 889.668C1060.43 892.666 1059.24 895.54 1057.12 897.66C1055 899.779 1052.13 900.97 1049.13 900.97C1046.13 900.97 1043.26 899.779 1041.14 897.66C1039.02 895.54 1037.83 892.666 1037.83 889.668C1037.83 886.671 1039.02 883.796 1041.14 881.677C1043.26 879.557 1046.13 878.366 1049.13 878.366Z" fill="url(#paint13_linear_191_982)" fill-opacity="0.25"/>
<path d="M834.399 1166.56C837.396 1166.56 840.271 1167.75 842.39 1169.87C844.51 1171.99 845.701 1174.86 845.701 1177.86C845.701 1180.86 844.51 1183.73 842.39 1185.85C840.271 1187.97 837.396 1189.16 834.399 1189.16C831.401 1189.16 828.527 1187.97 826.407 1185.85C824.288 1183.73 823.097 1180.86 823.097 1177.86C823.097 1174.86 824.288 1171.99 826.407 1169.87C828.527 1167.75 831.401 1166.56 834.399 1166.56ZM871.129 1166.56C874.127 1166.56 877.001 1167.75 879.121 1169.87C881.24 1171.99 882.431 1174.86 882.431 1177.86C882.431 1180.86 881.24 1183.73 879.121 1185.85C877.001 1187.97 874.127 1189.16 871.129 1189.16C868.132 1189.16 865.257 1187.97 863.138 1185.85C861.018 1183.73 859.828 1180.86 859.828 1177.86C859.828 1174.86 861.018 1171.99 863.138 1169.87C865.257 1167.75 868.132 1166.56 871.129 1166.56ZM797.668 1129.83C800.666 1129.83 803.54 1131.02 805.66 1133.14C807.779 1135.26 808.97 1138.13 808.97 1141.13C808.97 1144.13 807.779 1147 805.66 1149.12C803.54 1151.24 800.666 1152.43 797.668 1152.43C794.671 1152.43 791.796 1151.24 789.677 1149.12C787.557 1147 786.366 1144.13 786.366 1141.13C786.366 1138.13 787.557 1135.26 789.677 1133.14C791.796 1131.02 794.671 1129.83 797.668 1129.83ZM834.399 1129.83C837.396 1129.83 840.271 1131.02 842.39 1133.14C844.51 1135.26 845.701 1138.13 845.701 1141.13C845.701 1144.13 844.51 1147 842.39 1149.12C840.271 1151.24 837.396 1152.43 834.399 1152.43C831.401 1152.43 828.527 1151.24 826.407 1149.12C824.288 1147 823.097 1144.13 823.097 1141.13C823.097 1138.13 824.288 1135.26 826.407 1133.14C828.527 1131.02 831.401 1129.83 834.399 1129.83ZM871.129 1129.83C874.127 1129.83 877.001 1131.02 879.121 1133.14C881.24 1135.26 882.431 1138.13 882.431 1141.13C882.431 1144.13 881.24 1147 879.121 1149.12C877.001 1151.24 874.127 1152.43 871.129 1152.43C868.132 1152.43 865.257 1151.24 863.138 1149.12C861.018 1147 859.828 1144.13 859.828 1141.13C859.828 1138.13 861.018 1135.26 863.138 1133.14C865.257 1131.02 868.132 1129.83 871.129 1129.83ZM797.668 1093.1C800.666 1093.1 803.54 1094.29 805.66 1096.41C807.779 1098.53 808.97 1101.4 808.97 1104.4C808.97 1107.4 807.779 1110.27 805.66 1112.39C803.54 1114.51 800.666 1115.7 797.668 1115.7C794.671 1115.7 791.796 1114.51 789.677 1112.39C787.557 1110.27 786.366 1107.4 786.366 1104.4C786.366 1101.4 787.557 1098.53 789.677 1096.41C791.796 1094.29 794.671 1093.1 797.668 1093.1ZM834.399 1093.1C837.396 1093.1 840.271 1094.29 842.39 1096.41C844.51 1098.53 845.701 1101.4 845.701 1104.4C845.701 1107.4 844.51 1110.27 842.39 1112.39C840.271 1114.51 837.396 1115.7 834.399 1115.7C831.401 1115.7 828.527 1114.51 826.407 1112.39C824.288 1110.27 823.097 1107.4 823.097 1104.4C823.097 1101.4 824.288 1098.53 826.407 1096.41C828.527 1094.29 831.401 1093.1 834.399 1093.1ZM871.129 1093.1C874.127 1093.1 877.001 1094.29 879.121 1096.41C881.24 1098.53 882.431 1101.4 882.431 1104.4C882.431 1107.4 881.24 1110.27 879.121 1112.39C877.001 1114.51 874.127 1115.7 871.129 1115.7C868.132 1115.7 865.257 1114.51 863.138 1112.39C861.018 1110.27 859.828 1107.4 859.828 1104.4C859.828 1101.4 861.018 1098.53 863.138 1096.41C865.257 1094.29 868.132 1093.1 871.129 1093.1Z" fill="url(#paint14_linear_191_982)" fill-opacity="0.25"/>
<path d="M1012.4 1129.83C1015.4 1129.83 1018.27 1131.02 1020.39 1133.14C1022.51 1135.26 1023.7 1138.13 1023.7 1141.13C1023.7 1144.13 1022.51 1147 1020.39 1149.12C1018.27 1151.24 1015.4 1152.43 1012.4 1152.43C1009.4 1152.43 1006.53 1151.24 1004.41 1149.12C1002.29 1147 1001.1 1144.13 1001.1 1141.13C1001.1 1138.13 1002.29 1135.26 1004.41 1133.14C1006.53 1131.02 1009.4 1129.83 1012.4 1129.83ZM1012.4 1093.1C1015.4 1093.1 1018.27 1094.29 1020.39 1096.41C1022.51 1098.53 1023.7 1101.4 1023.7 1104.4C1023.7 1107.4 1022.51 1110.27 1020.39 1112.39C1018.27 1114.51 1015.4 1115.7 1012.4 1115.7C1009.4 1115.7 1006.53 1114.51 1004.41 1112.39C1002.29 1110.27 1001.1 1107.4 1001.1 1104.4C1001.1 1101.4 1002.29 1098.53 1004.41 1096.41C1006.53 1094.29 1009.4 1093.1 1012.4 1093.1ZM1049.13 1093.1C1052.13 1093.1 1055 1094.29 1057.12 1096.41C1059.24 1098.53 1060.43 1101.4 1060.43 1104.4C1060.43 1107.4 1059.24 1110.27 1057.12 1112.39C1055 1114.51 1052.13 1115.7 1049.13 1115.7C1046.13 1115.7 1043.26 1114.51 1041.14 1112.39C1039.02 1110.27 1037.83 1107.4 1037.83 1104.4C1037.83 1101.4 1039.02 1098.53 1041.14 1096.41C1043.26 1094.29 1046.13 1093.1 1049.13 1093.1Z" fill="url(#paint15_linear_191_982)" fill-opacity="0.25"/>
<circle cx="828" cy="147" r="184" stroke="#3ECC89" stroke-opacity="0.25" stroke-width="50"/>
<circle cx="202.5" cy="1100.5" r="325.5" stroke="#3ECC89" stroke-opacity="0.25" stroke-width="120"/>
<path d="M130.5 298L37 421.5L130.5 486.5L37 576L130.5 669" stroke="#33A871" stroke-opacity="0.25" stroke-width="15" stroke-linecap="round"/>
<path d="M39.5 298L-54 421.5L39.5 486.5L-54 576L39.5 669" stroke="#33A871" stroke-opacity="0.25" stroke-width="15" stroke-linecap="round"/>
<path d="M176 298L82.5 421.5L176 486.5L82.5 576L176 669" stroke="#33A871" stroke-opacity="0.25" stroke-width="15" stroke-linecap="round"/>
<path d="M85 298L-8.5 421.5L85 486.5L-8.5 576L85 669" stroke="#33A871" stroke-opacity="0.25" stroke-width="15" stroke-linecap="round"/>
<defs>
<linearGradient id="paint0_linear_191_982" x1="679" y1="778.064" x2="1097.16" y2="1189.16" gradientUnits="userSpaceOnUse">
<stop stop-color="#3ECC89" stop-opacity="0.5"/>
<stop offset="1" stop-color="#1F6645"/>
</linearGradient>
<linearGradient id="paint1_linear_191_982" x1="679" y1="778.064" x2="1097.16" y2="1189.16" gradientUnits="userSpaceOnUse">
<stop stop-color="#3ECC89" stop-opacity="0.5"/>
<stop offset="1" stop-color="#1F6645"/>
</linearGradient>
<linearGradient id="paint2_linear_191_982" x1="679" y1="778.064" x2="1097.16" y2="1189.16" gradientUnits="userSpaceOnUse">
<stop stop-color="#3ECC89" stop-opacity="0.5"/>
<stop offset="1" stop-color="#1F6645"/>
</linearGradient>
<linearGradient id="paint3_linear_191_982" x1="679" y1="778.064" x2="1097.16" y2="1189.16" gradientUnits="userSpaceOnUse">
<stop stop-color="#3ECC89" stop-opacity="0.5"/>
<stop offset="1" stop-color="#1F6645"/>
</linearGradient>
<linearGradient id="paint4_linear_191_982" x1="679" y1="778.064" x2="1097.16" y2="1189.16" gradientUnits="userSpaceOnUse">
<stop stop-color="#3ECC89" stop-opacity="0.5"/>
<stop offset="1" stop-color="#1F6645"/>
</linearGradient>
<linearGradient id="paint5_linear_191_982" x1="679" y1="778.064" x2="1097.16" y2="1189.16" gradientUnits="userSpaceOnUse">
<stop stop-color="#3ECC89" stop-opacity="0.5"/>
<stop offset="1" stop-color="#1F6645"/>
</linearGradient>
<linearGradient id="paint6_linear_191_982" x1="679" y1="778.064" x2="1097.16" y2="1189.16" gradientUnits="userSpaceOnUse">
<stop stop-color="#3ECC89" stop-opacity="0.5"/>
<stop offset="1" stop-color="#1F6645"/>
</linearGradient>
<linearGradient id="paint7_linear_191_982" x1="679" y1="778.064" x2="1097.16" y2="1189.16" gradientUnits="userSpaceOnUse">
<stop stop-color="#3ECC89" stop-opacity="0.5"/>
<stop offset="1" stop-color="#1F6645"/>
</linearGradient>
<linearGradient id="paint8_linear_191_982" x1="679" y1="778.064" x2="1097.16" y2="1189.16" gradientUnits="userSpaceOnUse">
<stop stop-color="#3ECC89" stop-opacity="0.5"/>
<stop offset="1" stop-color="#1F6645"/>
</linearGradient>
<linearGradient id="paint9_linear_191_982" x1="679" y1="778.064" x2="1097.16" y2="1189.16" gradientUnits="userSpaceOnUse">
<stop stop-color="#3ECC89" stop-opacity="0.5"/>
<stop offset="1" stop-color="#1F6645"/>
</linearGradient>
<linearGradient id="paint10_linear_191_982" x1="679" y1="778.064" x2="1097.16" y2="1189.16" gradientUnits="userSpaceOnUse">
<stop stop-color="#3ECC89" stop-opacity="0.5"/>
<stop offset="1" stop-color="#1F6645"/>
</linearGradient>
<linearGradient id="paint11_linear_191_982" x1="679" y1="778.064" x2="1097.16" y2="1189.16" gradientUnits="userSpaceOnUse">
<stop stop-color="#3ECC89" stop-opacity="0.5"/>
<stop offset="1" stop-color="#1F6645"/>
</linearGradient>
<linearGradient id="paint12_linear_191_982" x1="679" y1="778.064" x2="1097.16" y2="1189.16" gradientUnits="userSpaceOnUse">
<stop stop-color="#3ECC89" stop-opacity="0.5"/>
<stop offset="1" stop-color="#1F6645"/>
</linearGradient>
<linearGradient id="paint13_linear_191_982" x1="679" y1="778.064" x2="1097.16" y2="1189.16" gradientUnits="userSpaceOnUse">
<stop stop-color="#3ECC89" stop-opacity="0.5"/>
<stop offset="1" stop-color="#1F6645"/>
</linearGradient>
<linearGradient id="paint14_linear_191_982" x1="679" y1="778.064" x2="1097.16" y2="1189.16" gradientUnits="userSpaceOnUse">
<stop stop-color="#3ECC89" stop-opacity="0.5"/>
<stop offset="1" stop-color="#1F6645"/>
</linearGradient>
<linearGradient id="paint15_linear_191_982" x1="679" y1="778.064" x2="1097.16" y2="1189.16" gradientUnits="userSpaceOnUse">
<stop stop-color="#3ECC89" stop-opacity="0.5"/>
<stop offset="1" stop-color="#1F6645"/>
</linearGradient>
</defs>
</svg>
