<?xml version="1.0" encoding="UTF-8"?>
<svg id="Camada_1" data-name="Camada 1" xmlns="http://www.w3.org/2000/svg" viewBox="0 0 1920 1080">
  <path d="M728.57,285.73c46.42-8.92,57.56,64.16,11.7,69.34-44.96,5.07-52.81-61.44-11.7-69.34Z"/>
  <path d="M887.26,485.31c2.53,18.42-4.69,29.25,17.64,15.1,154.3-99.29,63.31-360.63-112.37-357.59-502.47,17.74-360.62,788.05,53.7,777.16,400.53,43.43,559.98-658.07,188.49-798.07,138.9,108.69,174.55,376.43,82.02,551.48,7.29-163.3,11.26-235.8,18.43-366.92-39.45,50.37-108.38,108.99-106,181.46-2.99,70.99-10.85,237.08-16.52,306.18,0,0-10.05,11.12-10.05,11.12,8.03-157.13,12.24-226.23,18.81-348.42-35.09,41.25-99.51,90.31-97.21,152.11-2.3,53.35-8.6,191.68-13.1,243.11,0,0-9.13,5.65-9.13,5.65-.42-102.94,16.9-214.76,9.71-256.9-95.56,79.38-73.36,136.19-80.41,247.11-45.14-95.32,31.86-240.46-72.2-310.4-291.74-173.72-27.16-416.91,67.82-282.96,25.91,48.65-16.43,102.16-48.22,137.98-22.96,21.59-26.05,71.39,6.11,85.52,21.19,8.46,64.65-7.44,78.65-22.38-22.3-18.13-66.26-33.14-70.04-56.79,12.34,31.42,85.77,42.47,93.83,85.88"/>
</svg>