<?xml version="1.0" encoding="UTF-8"?>
<svg id="Camada_1" data-name="Camada 1" xmlns="http://www.w3.org/2000/svg" viewBox="0 0 1920 1080">
  <defs>
    <style>
      .cls-1 {
        fill: #fff;
      }
    </style>
  </defs>
  <path class="cls-1" d="M795.83,285.91c47.51-9.13,58.92,65.68,11.97,70.97-46.01,5.19-54.06-62.89-11.97-70.97Z"/>
  <path class="cls-1" d="M958.26,490.19c2.59,18.85-4.8,29.94,18.05,15.46,157.93-101.63,64.8-369.12-115.02-366.01-514.3,18.16-369.11,806.6,54.96,795.45,409.96,44.46,573.16-673.56,192.93-816.86,142.17,111.25,178.66,385.29,83.95,564.46,7.47-167.15,11.52-241.35,18.87-375.56-40.38,51.56-110.93,111.55-108.5,185.73-3.06,72.66-11.1,242.66-16.91,313.39,0,0-10.28,11.38-10.28,11.38,8.22-160.83,12.52-231.55,19.25-356.62-35.92,42.22-101.85,92.44-99.5,155.69-2.35,54.6-8.8,196.2-13.4,248.83,0,0-9.34,5.78-9.34,5.78-.43-105.36,17.3-219.81,9.93-262.94-97.81,81.25-75.09,139.4-82.31,252.93-46.2-97.56,32.61-246.12-73.9-317.71-298.61-177.81-27.8-426.73,69.42-289.62,26.52,49.79-16.82,104.56-49.35,141.22-23.5,22.1-26.67,73.07,6.25,87.53,21.69,8.66,66.17-7.61,80.51-22.91-22.82-18.55-67.82-33.92-71.69-58.13,12.63,32.16,87.79,43.47,96.04,87.91"/>
</svg>