<?xml version="1.0" encoding="UTF-8"?>
<svg id="Camada_1" data-name="Camada 1" xmlns="http://www.w3.org/2000/svg" xmlns:xlink="http://www.w3.org/1999/xlink" viewBox="0 0 1920 1080">
  <defs>
    <style>
      .cls-1 {
        fill: url(#Gradiente_sem_nome_31);
      }

      .cls-2 {
        fill: url(#Gradiente_sem_nome_31-2);
      }
    </style>
    <linearGradient id="Gradiente_sem_nome_31" data-name="Gradiente sem nome 31" x1="761.49" y1="292.35" x2="725.75" y2="354.24" gradientUnits="userSpaceOnUse">
      <stop offset="0" stop-color="#0065a5"/>
      <stop offset=".99" stop-color="#0695d4"/>
    </linearGradient>
    <linearGradient id="Gradiente_sem_nome_31-2" data-name="Gradiente sem nome 31" x1="1077.81" y1="134.66" x2="653.42" y2="869.72" xlink:href="#Gradiente_sem_nome_31"/>
  </defs>
  <path class="cls-1" d="M736.31,288.22c47.12-9.05,58.44,65.14,11.87,70.39-45.64,5.15-53.61-62.37-11.87-70.39Z"/>
  <path class="cls-2" d="M897.4,490.82c2.57,18.7-4.76,29.69,17.9,15.33,156.64-100.8,64.27-366.1-114.07-363.01-510.08,18.01-366.08,799.99,54.51,788.93,406.6,44.09,568.46-668.04,191.34-810.16,141.01,110.33,177.19,382.13,83.26,559.83,7.41-165.78,11.43-239.38,18.71-372.48-40.05,51.14-110.02,110.64-107.61,184.21-3.03,72.06-11.01,240.67-16.77,310.82,0,0-10.2,11.29-10.2,11.29,8.15-159.51,12.42-229.65,19.09-353.7-35.63,41.88-101.02,91.68-98.68,154.42-2.33,54.16-8.73,194.59-13.29,246.79,0,0-9.27,5.73-9.27,5.73-.43-104.5,17.16-218.01,9.85-260.79-97.01,80.58-74.47,138.25-81.63,250.85-45.82-96.76,32.35-244.1-73.3-315.11-296.16-176.35-27.57-423.23,68.85-287.25,26.31,49.39-16.68,103.71-48.95,140.07-23.31,21.91-26.45,72.47,6.2,86.81,21.51,8.58,65.63-7.55,79.85-22.72-22.64-18.4-67.27-33.64-71.1-57.65,12.52,31.89,87.07,43.12,95.26,87.19"/>
</svg>