<svg width="32" height="32" viewBox="0 0 32 32" fill="none" xmlns="http://www.w3.org/2000/svg">
<path d="M27.9569 24.8186L23.808 5.09275C23.7544 4.8348 23.6503 4.58998 23.5017 4.37238C23.3532 4.15477 23.1631 3.96866 22.9424 3.82474C22.7217 3.68082 22.4747 3.58192 22.2157 3.53374C21.9567 3.48555 21.6907 3.48901 21.433 3.54394L15.5816 4.80149C15.064 4.91482 14.6121 5.22793 14.3242 5.67271C14.0362 6.11749 13.9355 6.65797 14.044 7.17659L18.1929 26.9024C18.2853 27.3525 18.5299 27.757 18.8855 28.0479C19.2411 28.3388 19.686 28.4985 20.1454 28.5C20.2875 28.4998 20.4291 28.4847 20.5679 28.455L26.4193 27.1974C26.9376 27.0838 27.3899 26.7701 27.6779 26.3246C27.9658 25.879 28.0661 25.3377 27.9569 24.8186ZM16.0003 6.76783V6.75658L21.8505 5.50652L22.2667 7.49036L16.4166 8.74916L16.0003 6.76783ZM17.2504 12.6906L16.8316 10.703L22.6842 9.44544L23.1018 11.433L17.2504 12.6906ZM26.0006 25.2424L20.1504 26.4924L19.7342 24.5086L25.5843 23.2498L26.0006 25.2311V25.2424ZM12.0002 4.49898H6.00005C5.46961 4.49898 4.96088 4.7097 4.5858 5.08479C4.21072 5.45988 4 5.96861 4 6.49906V26.4999C4 27.0304 4.21072 27.5391 4.5858 27.9142C4.96088 28.2893 5.46961 28.5 6.00005 28.5H12.0002C12.5307 28.5 13.0394 28.2893 13.4145 27.9142C13.7895 27.5391 14.0003 27.0304 14.0003 26.4999V6.49906C14.0003 5.96861 13.7895 5.45988 13.4145 5.08479C13.0394 4.7097 12.5307 4.49898 12.0002 4.49898ZM6.00005 6.49906H12.0002V8.49915H6.00005V6.49906ZM12.0002 26.4999H6.00005V24.4998H12.0002V26.4999Z" fill="white"/>
</svg>
