<svg width="32" height="32" viewBox="0 0 32 32" fill="none" xmlns="http://www.w3.org/2000/svg">
<path d="M26.6663 18.3334C26.6663 18.0681 26.561 17.8138 26.3734 17.6262C26.1859 17.4387 25.9316 17.3334 25.6663 17.3334H21.6663C21.4011 17.3334 21.1468 17.4387 20.9592 17.6262C20.7717 17.8138 20.6663 18.0681 20.6663 18.3334V27.3334H18.6663V5.66669C18.6663 4.69602 18.6637 4.06669 18.6023 3.60535C18.5437 3.17202 18.449 3.03602 18.373 2.96002C18.297 2.88402 18.161 2.78935 17.7277 2.73069C17.265 2.66935 16.637 2.66669 15.6663 2.66669C14.6957 2.66669 14.0663 2.66935 13.605 2.73069C13.1717 2.78935 13.0357 2.88402 12.9597 2.96002C12.8837 3.03602 12.789 3.17202 12.7303 3.60535C12.669 4.06802 12.6663 4.69602 12.6663 5.66669V27.3334H10.6663V11.6667C10.6663 11.4015 10.561 11.1471 10.3734 10.9596C10.1859 10.772 9.93156 10.6667 9.66634 10.6667H5.66634C5.40112 10.6667 5.14677 10.772 4.95923 10.9596C4.7717 11.1471 4.66634 11.4015 4.66634 11.6667V27.3334H2.33301C2.06779 27.3334 1.81344 27.4387 1.6259 27.6262C1.43836 27.8138 1.33301 28.0681 1.33301 28.3334C1.33301 28.5986 1.43836 28.8529 1.6259 29.0405C1.81344 29.228 2.06779 29.3334 2.33301 29.3334H28.9997C29.2649 29.3334 29.5192 29.228 29.7068 29.0405C29.8943 28.8529 29.9997 28.5986 29.9997 28.3334C29.9997 28.0681 29.8943 27.8138 29.7068 27.6262C29.5192 27.4387 29.2649 27.3334 28.9997 27.3334H26.6663V18.3334Z" fill="white"/>
</svg>
