<svg width="32" height="33" viewBox="0 0 32 33" fill="none" xmlns="http://www.w3.org/2000/svg">
<path d="M30.1954 15.3779C28.8698 9.38482 26.8748 6.18607 23.9154 5.31232C23.2934 5.12983 22.6481 5.03867 21.9998 5.0417C21.1429 5.0417 20.3967 5.25045 19.6073 5.4717C18.6561 5.73857 17.5754 6.0417 15.9998 6.0417C14.4242 6.0417 13.3429 5.7392 12.3898 5.47232C11.5998 5.25045 10.8542 5.0417 9.9998 5.0417C9.32944 5.03934 8.66201 5.13021 8.01668 5.3117C5.07293 6.1817 3.07918 9.3792 1.73418 15.3742C0.287928 21.8254 0.999803 25.8986 3.73043 26.8436C4.10472 26.9755 4.49855 27.0436 4.89543 27.0448C6.76605 27.0448 8.26605 25.4867 9.29105 24.2111C10.4492 22.7673 11.8048 22.0348 15.9998 22.0348C19.7467 22.0348 21.2973 22.5429 22.6367 24.2111C23.4786 25.2598 24.2742 25.9936 25.0679 26.4554C26.1236 27.0692 27.1786 27.2054 28.2029 26.8536C29.8167 26.3029 30.7417 24.8473 30.9529 22.5261C31.1136 20.7461 30.8661 18.4079 30.1954 15.3779ZM12.9998 15.0417H10.9998V17.0417C10.9998 17.3069 10.8944 17.5613 10.7069 17.7488C10.5194 17.9363 10.265 18.0417 9.9998 18.0417C9.73459 18.0417 9.48023 17.9363 9.2927 17.7488C9.10516 17.5613 8.9998 17.3069 8.9998 17.0417V15.0417H6.9998C6.73459 15.0417 6.48023 14.9363 6.2927 14.7488C6.10516 14.5613 5.9998 14.3069 5.9998 14.0417C5.9998 13.7765 6.10516 13.5221 6.2927 13.3346C6.48023 13.1471 6.73459 13.0417 6.9998 13.0417H8.9998V11.0417C8.9998 10.7765 9.10516 10.5221 9.2927 10.3346C9.48023 10.1471 9.73459 10.0417 9.9998 10.0417C10.265 10.0417 10.5194 10.1471 10.7069 10.3346C10.8944 10.5221 10.9998 10.7765 10.9998 11.0417V13.0417H12.9998C13.265 13.0417 13.5194 13.1471 13.7069 13.3346C13.8944 13.5221 13.9998 13.7765 13.9998 14.0417C13.9998 14.3069 13.8944 14.5613 13.7069 14.7488C13.5194 14.9363 13.265 15.0417 12.9998 15.0417ZM18.2498 15.2917C18.0026 15.2917 17.7609 15.2184 17.5553 15.081C17.3498 14.9437 17.1896 14.7485 17.095 14.5201C17.0003 14.2916 16.9756 14.0403 17.0238 13.7978C17.0721 13.5554 17.1911 13.3326 17.3659 13.1578C17.5407 12.983 17.7635 12.8639 18.0059 12.8157C18.2484 12.7675 18.4997 12.7922 18.7282 12.8868C18.9566 12.9815 19.1518 13.1417 19.2891 13.3472C19.4265 13.5528 19.4998 13.7945 19.4998 14.0417C19.4998 14.3732 19.3681 14.6912 19.1337 14.9256C18.8993 15.16 18.5813 15.2917 18.2498 15.2917ZM20.9998 18.0417C20.7524 18.0417 20.5106 17.9683 20.305 17.8308C20.0994 17.6933 19.9392 17.4979 19.8447 17.2693C19.7501 17.0407 19.7256 16.7892 19.7741 16.5467C19.8225 16.3041 19.9419 16.0814 20.117 15.9067C20.2922 15.732 20.5152 15.6132 20.7579 15.5653C21.0005 15.5175 21.252 15.5427 21.4803 15.6377C21.7087 15.7328 21.9037 15.8935 22.0407 16.0995C22.1776 16.3055 22.2504 16.5475 22.2498 16.7948C22.249 17.1258 22.1169 17.4429 21.8826 17.6767C21.6483 17.9104 21.3308 18.0417 20.9998 18.0417ZM20.9998 12.5417C20.7526 12.5417 20.5109 12.4684 20.3053 12.331C20.0998 12.1937 19.9396 11.9985 19.845 11.7701C19.7503 11.5416 19.7256 11.2903 19.7738 11.0478C19.8221 10.8054 19.9411 10.5826 20.1159 10.4078C20.2907 10.233 20.5135 10.1139 20.7559 10.0657C20.9984 10.0175 21.2497 10.0422 21.4782 10.1368C21.7066 10.2315 21.9018 10.3917 22.0391 10.5972C22.1765 10.8028 22.2498 11.0445 22.2498 11.2917C22.2498 11.6232 22.1181 11.9412 21.8837 12.1756C21.6493 12.41 21.3313 12.5417 20.9998 12.5417ZM23.7498 15.2917C23.5026 15.2917 23.2609 15.2184 23.0553 15.081C22.8498 14.9437 22.6896 14.7485 22.595 14.5201C22.5003 14.2916 22.4756 14.0403 22.5238 13.7978C22.5721 13.5554 22.6911 13.3326 22.8659 13.1578C23.0407 12.983 23.2635 12.8639 23.5059 12.8157C23.7484 12.7675 23.9997 12.7922 24.2282 12.8868C24.4566 12.9815 24.6518 13.1417 24.7891 13.3472C24.9265 13.5528 24.9998 13.7945 24.9998 14.0417C24.9998 14.3732 24.8681 14.6912 24.6337 14.9256C24.3993 15.16 24.0813 15.2917 23.7498 15.2917Z" fill="white"/>
</svg>
