<svg width="32" height="32" viewBox="0 0 32 32" fill="none" xmlns="http://www.w3.org/2000/svg">
<path d="M15.9896 19.5333C15.2895 19.534 14.605 19.3266 14.023 18.9376C13.4409 18.5485 12.9876 17.9953 12.7205 17.3482C12.4533 16.7011 12.3845 15.9892 12.5226 15.3029C12.6607 14.6166 12.9996 13.9867 13.4963 13.4933C13.5899 13.4005 13.701 13.3271 13.823 13.2772C13.9451 13.2273 14.0758 13.202 14.2076 13.2026C14.3395 13.2032 14.47 13.2298 14.5915 13.2808C14.7131 13.3319 14.8235 13.4063 14.9163 13.5C15.0091 13.5937 15.0825 13.7047 15.1324 13.8268C15.1823 13.9488 15.2076 14.0795 15.207 14.2114C15.2064 14.3433 15.1798 14.4737 15.1288 14.5953C15.0778 14.7169 15.0033 14.8272 14.9096 14.92C14.7658 15.0606 14.6515 15.2287 14.5737 15.4142C14.4958 15.5996 14.4559 15.7988 14.4563 16C14.4385 16.3167 14.5203 16.631 14.6901 16.8988C14.86 17.1667 15.1093 17.3748 15.4033 17.4938C15.6973 17.6129 16.0211 17.637 16.3295 17.5628C16.6379 17.4886 16.9153 17.3198 17.1229 17.08C17.3127 16.8919 17.5691 16.7864 17.8363 16.7864C18.1035 16.7864 18.3598 16.8919 18.5496 17.08C18.7345 17.2714 18.8379 17.5272 18.8379 17.7933C18.8379 18.0595 18.7345 18.3153 18.5496 18.5067C18.2126 18.8395 17.8127 19.1017 17.3731 19.278C16.9335 19.4543 16.4631 19.5411 15.9896 19.5333Z" fill="white"/>
<path d="M29.6556 16C29.6556 19.6246 28.2157 23.1008 25.6527 25.6638C23.0897 28.2268 19.6136 29.6666 15.9889 29.6666C12.3643 29.6666 8.88814 28.2268 6.32514 25.6638C3.76214 23.1008 2.32227 19.6246 2.32227 16C2.32227 12.3754 3.76214 8.89918 6.32514 6.33619C8.88814 3.77319 12.3643 2.33331 15.9889 2.33331C16.2541 2.33331 16.5085 2.43867 16.696 2.62621C16.8836 2.81374 16.9889 3.0681 16.9889 3.33331V8.39998C16.9855 8.66412 16.879 8.91647 16.6922 9.10327C16.5054 9.29006 16.2531 9.39653 15.9889 9.39998C14.6831 9.39099 13.4051 9.77673 12.3223 10.5066C11.2334 11.2283 10.3842 12.2581 9.8831 13.4645C9.38202 14.6709 9.25175 15.9992 9.50893 17.28C9.92718 18.7994 10.8702 20.1216 12.1706 21.0118C13.471 21.902 15.0448 22.3028 16.6126 22.143C18.1804 21.9832 19.641 21.2731 20.735 20.1388C21.829 19.0045 22.4859 17.5192 22.5889 15.9466C22.5871 15.8148 22.6118 15.684 22.6614 15.5619C22.711 15.4397 22.7846 15.3288 22.8778 15.2355C22.971 15.1423 23.082 15.0687 23.2041 15.0191C23.3263 14.9695 23.4571 14.9449 23.5889 14.9466H28.6556C28.7915 14.9465 28.9261 14.974 29.051 15.0275C29.176 15.0811 29.2887 15.1596 29.3822 15.2581C29.4758 15.3567 29.5483 15.4733 29.5953 15.6009C29.6423 15.7284 29.6628 15.8642 29.6556 16Z" fill="white"/>
<path d="M29.1757 8.17335C29.1409 8.43276 29.0348 8.6774 28.8691 8.88002L25.9757 11.7733C25.5643 12.1865 25.0552 12.4892 24.4957 12.6533C24.1675 12.7541 23.8257 12.8036 23.4824 12.8C23.2473 12.8209 23.0108 12.8209 22.7757 12.8L21.0024 12.4533L17.9624 15.5067C17.7712 15.6885 17.5195 15.793 17.2557 15.8C16.9906 15.7998 16.7364 15.6943 16.5491 15.5067C16.4547 15.4148 16.3797 15.3049 16.3285 15.1835C16.2774 15.0621 16.251 14.9317 16.251 14.8C16.251 14.6683 16.2774 14.5379 16.3285 14.4165C16.3797 14.2952 16.4547 14.1853 16.5491 14.0933L19.6024 11.0267L19.2424 9.26668C19.1348 8.6994 19.1622 8.11475 19.3224 7.56002C19.4866 7.00053 19.7893 6.49149 20.2024 6.08002L23.0691 3.21335C23.2661 3.03416 23.5122 2.91807 23.7757 2.88002C24.0224 2.84428 24.274 2.88622 24.4957 3.00002C24.7158 3.11192 24.9004 3.28271 25.0291 3.49335C25.1593 3.72906 25.2151 3.99866 25.1891 4.26668L24.7624 7.28002L27.7624 6.86668C28.0135 6.84204 28.2662 6.89376 28.4875 7.01508C28.7087 7.13641 28.8882 7.32169 29.0024 7.54668C29.111 7.73807 29.1706 7.95336 29.1757 8.17335Z" fill="white"/>
</svg>
