<svg width="64" height="64" viewBox="0 0 64 64" fill="none" xmlns="http://www.w3.org/2000/svg">
<rect width="64" height="64" fill="#D4D4D4"/>
<g clip-path="url(#clip0_1_2)">
<rect width="1920" height="3726" transform="translate(-480 -764)" fill="white"/>
<rect x="-159.5" y="-49.5" width="383" height="314" rx="7.5" fill="white"/>
<rect x="-159.5" y="-49.5" width="383" height="314" rx="7.5" stroke="#81B7FF"/>
<rect x="-18" y="-18" width="100" height="100" rx="50" fill="#15B8A6"/>
<path fill-rule="evenodd" clip-rule="evenodd" d="M38.6667 8V18.6667H56V21.3333H38.6667V30.6667H56V10.6667C56 9.19333 54.8853 8 53.5107 8H38.6667ZM38.6667 33.3333H56V42.6667H38.6667V33.3333ZM38.6667 45.3333H56V53.3333C56 54.8067 54.8853 56 53.5107 56H38.6667V45.3333ZM36 45.3333V56H21.156C19.7813 56 18.6667 54.8067 18.6667 53.3333V45.3333H36ZM36 18.6667H18.6667V10.6667C18.6667 9.19333 19.7813 8 21.156 8H36V18.6667ZM30.736 21.3333V30.6667H36V21.3333H30.736ZM30.736 33.3333V42.6667H36V33.3333H30.736ZM8 22.6667C8 22.313 8.14048 21.9739 8.39052 21.7239C8.64057 21.4738 8.97971 21.3333 9.33333 21.3333H26.8773C27.231 21.3333 27.5701 21.4738 27.8201 21.7239C28.0702 21.9739 28.2107 22.313 28.2107 22.6667V41.3333C28.2107 41.687 28.0702 42.0261 27.8201 42.2761C27.5701 42.5262 27.231 42.6667 26.8773 42.6667H9.33333C8.97971 42.6667 8.64057 42.5262 8.39052 42.2761C8.14048 42.0261 8 41.687 8 41.3333V22.6667ZM12.8093 25.3333H15.8227L18.268 30.3387L20.8533 25.3333H23.6693L19.7893 32L23.7573 38.6667H20.7867L18.1213 33.4267L15.468 38.6667H12.4533L16.4853 31.976L12.8093 25.3333Z" fill="white"/>
</g>
<defs>
<clipPath id="clip0_1_2">
<rect width="1920" height="3726" fill="white" transform="translate(-480 -764)"/>
</clipPath>
</defs>
</svg>
