<svg width="32" height="33" viewBox="0 0 32 33" fill="none" xmlns="http://www.w3.org/2000/svg">
<path d="M16.0003 3.45837C13.525 3.45837 11.151 4.4417 9.40066 6.19204C7.65032 7.94238 6.66699 10.3164 6.66699 12.7917C6.66699 15.965 8.25366 18.7517 10.667 20.445V23.4584C10.667 23.812 10.8075 24.1511 11.0575 24.4012C11.3076 24.6512 11.6467 24.7917 12.0003 24.7917H20.0003C20.3539 24.7917 20.6931 24.6512 20.9431 24.4012C21.1932 24.1511 21.3337 23.812 21.3337 23.4584V20.445C23.747 18.7517 25.3337 15.965 25.3337 12.7917C25.3337 10.3164 24.3503 7.94238 22.6 6.19204C20.8496 4.4417 18.4757 3.45837 16.0003 3.45837ZM12.0003 28.7917C12.0003 29.1453 12.1408 29.4845 12.3908 29.7345C12.6409 29.9846 12.98 30.125 13.3337 30.125H18.667C19.0206 30.125 19.3598 29.9846 19.6098 29.7345C19.8598 29.4845 20.0003 29.1453 20.0003 28.7917V27.4584H12.0003V28.7917Z" fill="white"/>
</svg>
