<svg width="32" height="32" viewBox="0 0 32 32" fill="none" xmlns="http://www.w3.org/2000/svg">
<path fill-rule="evenodd" clip-rule="evenodd" d="M16.0262 4C13.0148 4 10.2715 4.99467 8.64815 5.80733C8.50148 5.88067 8.3646 5.95222 8.23748 6.022C7.98548 6.15933 7.77082 6.28733 7.60015 6.4L9.44682 9.11867L10.3162 9.46467C13.7135 11.1787 18.2695 11.1787 21.6675 9.46467L22.6542 8.95267L24.4002 6.4C24.0381 6.16474 23.6621 5.95168 23.2742 5.762C21.6588 4.958 18.9808 4 16.0268 4M11.7322 7.07733C11.0784 6.9543 10.4326 6.79223 9.79815 6.592C11.3188 5.91667 13.5848 5.2 16.0268 5.2C17.7182 5.2 19.3175 5.544 20.6402 5.98C19.0902 6.198 17.4362 6.568 15.8602 7.02333C14.6202 7.382 13.1708 7.34333 11.7322 7.07733ZM22.3722 10.4533L22.2082 10.536C18.4708 12.4213 13.5135 12.4213 9.77615 10.536L9.62082 10.4573C4.00548 16.618 -0.281183 27.998 16.0262 27.998C32.3335 27.998 27.9428 16.4067 22.3722 10.4533ZM15.3335 16C14.9799 16 14.6407 16.1405 14.3907 16.3905C14.1406 16.6406 14.0002 16.9797 14.0002 17.3333C14.0002 17.687 14.1406 18.0261 14.3907 18.2761C14.6407 18.5262 14.9799 18.6667 15.3335 18.6667V16ZM16.6668 14.6667V14H15.3335V14.6667C14.6262 14.6667 13.948 14.9476 13.4479 15.4477C12.9478 15.9478 12.6668 16.6261 12.6668 17.3333C12.6668 18.0406 12.9478 18.7189 13.4479 19.219C13.948 19.719 14.6262 20 15.3335 20V22.6667C14.7535 22.6667 14.2595 22.2967 14.0755 21.778C14.0482 21.6931 14.0041 21.6146 13.946 21.5471C13.8878 21.4795 13.8167 21.4244 13.7368 21.3848C13.6569 21.3452 13.5699 21.3221 13.4809 21.3167C13.392 21.3113 13.3028 21.3239 13.2188 21.3536C13.1347 21.3833 13.0575 21.4295 12.9916 21.4896C12.9258 21.5497 12.8726 21.6223 12.8353 21.7033C12.798 21.7843 12.7774 21.8719 12.7745 21.961C12.7717 22.0501 12.7868 22.1388 12.8188 22.222C13.0026 22.742 13.3432 23.1923 13.7935 23.5107C14.2439 23.8291 14.7819 24.0001 15.3335 24V24.6667H16.6668V24C17.3741 24 18.0523 23.719 18.5524 23.219C19.0525 22.7189 19.3335 22.0406 19.3335 21.3333C19.3335 20.6261 19.0525 19.9478 18.5524 19.4477C18.0523 18.9476 17.3741 18.6667 16.6668 18.6667V16C17.2468 16 17.7408 16.37 17.9248 16.8887C17.9521 16.9735 17.9962 17.052 18.0543 17.1196C18.1125 17.1871 18.1836 17.2423 18.2635 17.2819C18.3434 17.3214 18.4304 17.3446 18.5194 17.35C18.6083 17.3553 18.6975 17.3428 18.7815 17.3131C18.8656 17.2834 18.9428 17.2371 19.0087 17.1771C19.0746 17.117 19.1277 17.0443 19.165 16.9634C19.2023 16.8824 19.2229 16.7948 19.2258 16.7057C19.2286 16.6166 19.2136 16.5278 19.1815 16.4447C18.9977 15.9246 18.6571 15.4744 18.2068 15.156C17.7564 14.8375 17.2184 14.6666 16.6668 14.6667ZM16.6668 20V22.6667C17.0204 22.6667 17.3596 22.5262 17.6096 22.2761C17.8597 22.0261 18.0002 21.687 18.0002 21.3333C18.0002 20.9797 17.8597 20.6406 17.6096 20.3905C17.3596 20.1405 17.0204 20 16.6668 20Z" fill="white"/>
</svg>
